<?xml version="1.0" encoding="UTF-8" standalone="no"?>
<svg
   xmlns:dc="http://purl.org/dc/elements/1.1/"
   xmlns:cc="http://creativecommons.org/ns#"
   xmlns:rdf="http://www.w3.org/1999/02/22-rdf-syntax-ns#"
   xmlns:svg="http://www.w3.org/2000/svg"
   xmlns="http://www.w3.org/2000/svg"
   xmlns:sodipodi="http://sodipodi.sourceforge.net/DTD/sodipodi-0.dtd"
   xmlns:inkscape="http://www.inkscape.org/namespaces/inkscape"
   viewBox="0 0 18 28"
   x="0px"
   y="0px"
   version="1.1"
   id="svg12"
   sodipodi:docname="Learn@Home_profile_dark.svg"
   inkscape:export-filename="J:\+ DEVELOPPEUR\FORMATION_developpeur\P10_Learn@Home\Lean@Home_ressources\Learn@Home_website\Learn@Home_website_icons\profile_dark_VIOLET.png"
   inkscape:export-xdpi="299"
   inkscape:export-ydpi="299"
   inkscape:version="0.92.3 (2405546, 2018-03-11)"
   width="18"
   height="28">
  <metadata
     id="metadata18">
    <rdf:RDF>
      <cc:Work
         rdf:about="">
        <dc:format>image/svg+xml</dc:format>
        <dc:type
           rdf:resource="http://purl.org/dc/dcmitype/StillImage" />
        <dc:title>11 user</dc:title>
      </cc:Work>
    </rdf:RDF>
  </metadata>
  <defs
     id="defs16" />
  <sodipodi:namedview
     pagecolor="#ffffff"
     bordercolor="#666666"
     borderopacity="1"
     objecttolerance="10"
     gridtolerance="10"
     guidetolerance="10"
     inkscape:pageopacity="0"
     inkscape:pageshadow="2"
     inkscape:window-width="1920"
     inkscape:window-height="1001"
     id="namedview14"
     showgrid="false"
     inkscape:zoom="5.9"
     inkscape:cx="-44.59322"
     inkscape:cy="20"
     inkscape:window-x="-9"
     inkscape:window-y="-9"
     inkscape:window-maximized="1"
     inkscape:current-layer="svg12" />
  <title
     id="title2">11 user</title>
  <g
     data-name="11 user"
     id="g6"
     style="fill:#56144c;fill-opacity:1;stroke-width:0.99848419"
     transform="matrix(1.0029414,0,0,1.0000969,-7.0169741,-2.0001946)">
    <path
       d="m 23,9 a 7,7 0 1 1 -7,-7 7,7 0 0 1 7,7 z m -7,9 a 9,9 0 0 0 -9,8.18 1,1 0 0 0 0.39,0.88 14,14 0 0 0 17.16,0 1,1 0 0 0 0.39,-0.88 A 9,9 0 0 0 16,18 Z"
       id="path4"
       inkscape:connector-curvature="0"
       style="fill:#56144c;fill-opacity:1;stroke-width:0.99848419" />
  </g>
</svg>
