<?xml version="1.0" encoding="UTF-8" standalone="no"?> <svg width="43" height="43" viewBox="0 0 43 43" fill="none" xmlns="http://www.w3.org/2000/svg">
<rect x="0.111328" y="0.640091" width="42" height="42" rx="21" fill="black"/>
<path d="M21.892 31.3595C20.6642 31.3595 19.5388 31.1549 18.4134 30.7456C18.3111 30.7456 18.2088 30.6433 18.2088 30.6433H18.1065L12.8887 31.1549C12.2749 31.2572 11.7633 31.2572 11.3541 30.9502C10.9449 30.7456 10.7403 30.3364 10.6379 29.9272C10.5356 29.4156 10.7403 29.0064 11.0472 28.4948L12.6841 25.4255C12.7864 25.3232 12.7864 25.2209 12.8887 25.1186C12.8887 25.1186 12.7864 25.0163 12.7864 24.8117C12.4795 23.7886 12.2749 22.7655 12.2749 21.7424C12.1726 16.32 16.5719 11.9207 21.892 11.9207C27.212 11.9207 31.6113 16.32 31.6113 21.6401C31.6113 26.9602 27.212 31.3595 21.892 31.3595ZM18.2088 28.5971C18.2088 28.5971 18.3111 28.5971 18.2088 28.5971C18.4134 28.5971 18.5158 28.5971 18.6181 28.5971C18.7204 28.5971 18.8227 28.6994 19.0273 28.6994C19.9481 29.0064 20.8689 29.211 21.7896 29.211C25.9843 29.211 29.4628 25.7325 29.4628 21.5378C29.4628 17.3431 26.0866 13.9669 21.892 13.9669C17.6973 13.9669 14.2188 17.4454 14.2188 21.6401C14.2188 22.4586 14.3211 23.2771 14.628 24.0955C14.7303 24.5048 14.8326 24.7094 14.8326 24.914C14.8326 25.1186 14.8326 25.3232 14.7303 25.5279C14.628 25.7325 14.5257 25.9371 14.4234 26.244L12.8887 29.0064L17.6973 28.4948C18.0042 28.5971 18.1065 28.5971 18.2088 28.5971Z" fill="white"/>
</svg>
