<?xml version="1.0" encoding="UTF-8" standalone="no"?>
<svg
   xmlns:dc="http://purl.org/dc/elements/1.1/"
   xmlns:cc="http://creativecommons.org/ns#"
   xmlns:rdf="http://www.w3.org/1999/02/22-rdf-syntax-ns#"
   xmlns:svg="http://www.w3.org/2000/svg"
   xmlns="http://www.w3.org/2000/svg"
   xmlns:sodipodi="http://sodipodi.sourceforge.net/DTD/sodipodi-0.dtd"
   xmlns:inkscape="http://www.inkscape.org/namespaces/inkscape"
   version="1.1"
   x="0px"
   y="0px"
   viewBox="0 0 84 84"
   xml:space="preserve"
   id="svg12"
   sodipodi:docname="Learn@Home_ICON_dark_prof1.svg"
   width="84"
   height="84"
   inkscape:version="0.92.3 (2405546, 2018-03-11)"
   inkscape:export-filename="J:\+ DEVELOPPEUR\FORMATION_developpeur\P10_Learn@Home\Lean@Home_ressources\Learn@Home_website\Learn@Home_website_icons\Learn@Home_ICON_dark_prof_BLANC.png"
   inkscape:export-xdpi="299"
   inkscape:export-ydpi="299"><metadata
     id="metadata18"><rdf:RDF><cc:Work
         rdf:about=""><dc:format>image/svg+xml</dc:format><dc:type
           rdf:resource="http://purl.org/dc/dcmitype/StillImage" /><dc:title></dc:title></cc:Work></rdf:RDF></metadata><defs
     id="defs16" /><sodipodi:namedview
     pagecolor="#ffffff"
     bordercolor="#666666"
     borderopacity="1"
     objecttolerance="10"
     gridtolerance="10"
     guidetolerance="10"
     inkscape:pageopacity="0"
     inkscape:pageshadow="2"
     inkscape:window-width="1920"
     inkscape:window-height="1051"
     id="namedview14"
     showgrid="false"
     showguides="true"
     inkscape:guide-bbox="true"
     inkscape:zoom="2.95"
     inkscape:cx="-11.467316"
     inkscape:cy="65.359119"
     inkscape:window-x="-9"
     inkscape:window-y="-9"
     inkscape:window-maximized="1"
     inkscape:current-layer="svg12"><sodipodi:guide
       position="-62.20339,50.169491"
       orientation="1,0"
       id="guide936"
       inkscape:locked="false" /><sodipodi:guide
       position="-47.460048,74.545833"
       orientation="1,0"
       id="guide938"
       inkscape:locked="false" /><sodipodi:guide
       position="-53.89831,58.00003"
       orientation="0,1"
       id="guide940"
       inkscape:locked="false" /><sodipodi:guide
       position="-53.898305,41.694915"
       orientation="0,1"
       id="guide942"
       inkscape:locked="false" /><sodipodi:guide
       position="6.9491525,62.372881"
       orientation="0,1"
       id="guide974"
       inkscape:locked="false" /><sodipodi:guide
       position="-77.182503,74.785531"
       orientation="1,0"
       id="guide976"
       inkscape:locked="false" /></sodipodi:namedview><g
     id="g6"
     transform="matrix(5.25,0,0,5.25,0,5.25)"
     style="fill:#00000f;fill-opacity:0.94117647;stroke-width:0.19047619"
     inkscape:export-xdpi="299"
     inkscape:export-ydpi="299"><path
       d="M 7,9.977 C 3.877,9.836 1.329,9.043 0,7.887 V 13.5 C 0,14.325 0.675,15 1.5,15 h 13 C 15.325,15 16,14.325 16,13.5 V 7.887 c -1.329,1.156 -3.878,1.949 -7,2.09 0.025424,1.63317 -2,1.63317 -2,0 z"
       id="path4"
       inkscape:connector-curvature="0"
       sodipodi:nodetypes="ccssssccc"
       style="fill:#00000f;fill-opacity:0.94117647;stroke-width:0.19047619" /><path
       d="M 14.5,3.1076136 H 11 V 1.5538068 C 11,0.69714132 10.327,0 9.5,0 h -3 C 5.673,0 5,0.69714132 5,1.5538068 V 3.1076136 H 1.5 c -0.825,0 -1.50484046,0.6992268 -1.5,1.5538068 l 0.01337251,2.3609093 c 0,0 3.27262749,2.3005111 7.98662749,2.3005111 4.715,0 8.064568,-2.3650793 8.064568,-2.3650793 L 16,4.6614204 C 15.97598,3.8071643 15.325,3.1076136 14.5,3.1076136 Z m -4.5,0 H 6 V 1.5538068 C 6,1.2679063 6.224,1.0358712 6.5,1.0358712 h 3 c 0.275,0 0.5,0.2320351 0.5,0.5179356 z"
       id="path2"
       inkscape:connector-curvature="0"
       style="fill:#00000f;fill-opacity:0.94117647;stroke-width:0.19047619"
       sodipodi:nodetypes="scsssscsscscssccssssc" /><path
       style="fill:#00000f;fill-opacity:0.94117647;stroke:#ffffff;stroke-width:0.38095239;stroke-linecap:butt;stroke-linejoin:miter;stroke-miterlimit:4;stroke-dasharray:none;stroke-opacity:1"
       d="M 4.6448749,2.9142857 H 11.355125"
       id="path950"
       inkscape:connector-curvature="0" /></g><circle
     style="opacity:1;fill:#ffffff;fill-opacity:1;stroke:none;stroke-width:2;stroke-linecap:round;stroke-linejoin:miter;stroke-miterlimit:4;stroke-dasharray:none;stroke-dashoffset:0;stroke-opacity:1;paint-order:normal"
     id="path948"
     cx="42"
     cy="57.28812"
     r="8.1525574" /></svg>