<?xml version="1.0" encoding="UTF-8" standalone="no"?> <svg xmlns="http://www.w3.org/2000/svg" viewBox="0 0 48 48"><title>Student Male</title><g id="_11_-_20" data-name="11 - 20"><g id="Student_Male" data-name="Student Male"><path d="M27.258,34.754a6.114,6.114,0,0,1-6.521,0,10.026,10.026,0,0,0,1.592,2.683l.9,1.083a1,1,0,0,0,1.538,0l.9-1.083a10.063,10.063,0,0,0,1.592-2.682Z"/><path d="M16.674,37.836a.984.984,0,0,0,.711.423l3.345.372A12.067,12.067,0,0,1,18.3,33.6l-.4.529a8.048,8.048,0,0,0-1.375,2.89A.989.989,0,0,0,16.674,37.836Z"/><path d="M44.435,42.349l-.45-2.023a9.015,9.015,0,0,0-6.138-6.65l-6.115-1.882c-.178.157-.361.306-.548.451l.515.687a10.045,10.045,0,0,1,1.716,3.606,3,3,0,0,1-2.579,3.709L24,41.006l-6.836-.759a3,3,0,0,1-2.579-3.71,10.049,10.049,0,0,1,1.716-3.6l.515-.687c-.186-.146-.37-.295-.547-.451l-6.116,1.882a9.015,9.015,0,0,0-6.138,6.65l-.45,2.023A3,3,0,0,0,6.493,46H41.507a3,3,0,0,0,2.928-3.651Z"/><path d="M31.326,37.836a.989.989,0,0,0,.149-.814,8.048,8.048,0,0,0-1.375-2.89l-.4-.529a12.067,12.067,0,0,1-2.433,5.028l3.345-.372A.984.984,0,0,0,31.326,37.836Z"/><path d="M10.864,15.586a3.884,3.884,0,0,1,2.071-.6,4.134,4.134,0,0,1,1.812.424A6.2,6.2,0,0,1,19.371,12.4l2.772-.3a13.463,13.463,0,0,0,5.942-2.17L29.75,8.818,32.135,12.4A10.355,10.355,0,0,1,33.48,15.31a4.133,4.133,0,0,1,1.585-.321,3.851,3.851,0,0,1,2.064.592l.007.005.185-.735a9.071,9.071,0,0,0-.462-5.725l-.36-.841a7.073,7.073,0,0,0-6.086-4.273,8.7,8.7,0,0,0-7.769-2.036L17.737,3.115a9.045,9.045,0,0,0-6.256,5.22l-.34.791a9.069,9.069,0,0,0-.461,5.727Z"/><path d="M33.531,17.636,32.308,18.86l-.52-2.077-.166-.685a8.4,8.4,0,0,0-1.152-2.586l-1.278-1.921a15.422,15.422,0,0,1-6.833,2.492l-2.762.3a4.168,4.168,0,0,0-3.313,2.4,4.238,4.238,0,0,0-.249.727l-.343,1.35-1.223-1.224a2.069,2.069,0,0,0-2.532-.364l-.014.009a3.117,3.117,0,0,0,1.692,5.733,2.921,2.921,0,0,0,.675-.083l.644,2.918a8.343,8.343,0,0,0,3.708,5.244L21.8,33.056a4.118,4.118,0,0,0,4.4,0l3.156-1.963a8.343,8.343,0,0,0,3.708-5.244l.644-2.918a2.921,2.921,0,0,0,.675.083,3.117,3.117,0,0,0,1.692-5.733l-.014-.009A2.069,2.069,0,0,0,33.531,17.636Z"/></g></g></svg>