<?xml version="1.0" encoding="UTF-8" standalone="no"?> <svg width="43" height="43" viewBox="0 0 43 43" fill="none" xmlns="http://www.w3.org/2000/svg">
<rect x="0.779297" y="0.640091" width="42" height="42" rx="21" fill="black"/>
<path d="M22.5599 31.4106C21.3322 31.4106 20.2068 31.206 19.0814 30.7967C18.9791 30.7967 18.8768 30.6944 18.8768 30.6944H18.7745L13.5567 31.206C12.9429 31.3083 12.4313 31.3083 12.0221 31.0014C11.6128 30.7967 11.4082 30.3875 11.3059 29.9783C11.2036 29.4667 11.4082 29.0575 11.7151 28.5459L13.3521 25.4767C13.4544 25.3744 13.4544 25.272 13.5567 25.1697C13.5567 25.1697 13.4544 25.0674 13.4544 24.8628C13.1475 23.8397 12.9429 22.8166 12.9429 21.7935C12.9429 16.7804 16.7283 12.5857 21.7414 12.0742C22.3553 11.9718 22.7645 12.4834 22.8669 12.9949C22.9692 13.5065 22.4576 14.018 21.9461 14.1203C17.8537 14.4273 14.8867 17.7012 14.8867 21.6912C14.8867 22.5097 14.989 23.3282 15.296 24.1466C15.3983 24.5559 15.5006 24.7605 15.5006 24.9651C15.5006 25.1697 15.5006 25.3744 15.3983 25.579C15.296 25.7836 15.1937 25.9882 15.0914 26.2951L13.5567 29.0575L18.3652 28.5459C18.5699 28.5459 18.6722 28.5459 18.7745 28.5459C18.8768 28.5459 18.9791 28.5459 19.1837 28.5459C19.286 28.5459 19.3883 28.6482 19.593 28.6482C20.5137 28.9552 21.4345 29.1598 22.3553 29.1598C26.3454 29.1598 29.6193 26.1928 30.0285 22.2028C30.1308 21.6912 30.54 21.282 31.1539 21.282C31.6654 21.3843 32.177 21.7935 32.0747 22.4074C31.7677 27.6252 27.5731 31.4106 22.5599 31.4106ZM28.1869 20.1566C27.1638 20.1566 26.1407 19.7473 25.3223 18.9289C23.6853 17.2919 23.6853 14.7342 25.3223 13.0972C26.9592 11.4603 29.5169 11.4603 31.1539 13.0972C31.8701 13.9157 32.2793 14.9388 32.2793 16.0642C32.2793 17.1896 31.8701 18.2127 31.0516 18.9289C30.2331 19.7473 29.21 20.1566 28.1869 20.1566ZM28.1869 14.018C27.6754 14.018 27.1638 14.2226 26.7546 14.6319C25.9361 15.4504 25.9361 16.6781 26.7546 17.4965C27.5731 18.315 28.9031 18.315 29.6193 17.4965C30.0285 17.0873 30.2331 16.5758 30.2331 16.0642C30.2331 15.5527 30.0285 15.0411 29.6193 14.6319C29.21 14.2226 28.6985 14.018 28.1869 14.018Z" fill="white"/>
</svg>
